<?xml version="1.0" encoding="iso-8859-1"?>
<!-- Generator: Adobe Illustrator 18.0.0, SVG Export Plug-In . SVG Version: 6.00 Build 0)  -->
<!DOCTYPE svg PUBLIC "-//W3C//DTD SVG 1.1//EN" "http://www.w3.org/Graphics/SVG/1.1/DTD/svg11.dtd">
<svg version="1.1" id="Capa_1" xmlns="http://www.w3.org/2000/svg" xmlns:xlink="http://www.w3.org/1999/xlink" x="0px" y="0px"
	 viewBox="0 0 58 58" style="enable-background:new 0 0 58 58;" xml:space="preserve">
<path style="fill:#231F20;" d="M55,11H41.618V8.211c0-1.657-1.343-3-3-3H19.382c-1.657,0-3,1.343-3,3V11H3c-1.657,0-3,1.343-3,3
	v35.788c0,1.657,1.343,3,3,3h52c1.657,0,3-1.343,3-3V14C58,12.343,56.657,11,55,11z M29,43.65c-3.957,0-7.456-1.971-9.587-4.976
	c1.691-0.08,3.297-0.683,4.605-1.725c1.406,1.12,3.155,1.741,4.983,1.741c1.829,0,3.577-0.621,4.982-1.741
	c1.307,1.042,2.913,1.645,4.604,1.725C36.456,41.679,32.957,43.65,29,43.65z M40.171,35.538c-0.39,0.097-0.793,0.152-1.203,0.152
	c-1.482,0-2.88-0.652-3.836-1.79c-0.57-0.679-1.727-0.679-2.297,0c-0.956,1.138-2.354,1.79-3.834,1.79
	c-1.48,0-2.879-0.653-3.837-1.791c-0.285-0.339-0.705-0.534-1.147-0.534c0,0,0,0-0.001,0c-0.442,0-0.862,0.196-1.147,0.535
	c-0.956,1.138-2.354,1.79-3.834,1.79c-0.411,0-0.814-0.055-1.205-0.152c-0.376-1.148-0.585-2.371-0.585-3.643
	c0-6.482,5.273-11.756,11.756-11.756c6.482,0,11.756,5.273,11.756,11.756C40.756,33.166,40.546,34.389,40.171,35.538z M6,17h13.367
	c-4.881,3.168-8.122,8.655-8.122,14.894c0,6.24,3.242,11.727,8.123,14.894H6V17z M52,46.789H38.633
	c4.881-3.167,8.123-8.655,8.123-14.894c0-6.239-3.242-11.726-8.122-14.894H52V46.789z"/>
<g>
</g>
<g>
</g>
<g>
</g>
<g>
</g>
<g>
</g>
<g>
</g>
<g>
</g>
<g>
</g>
<g>
</g>
<g>
</g>
<g>
</g>
<g>
</g>
<g>
</g>
<g>
</g>
<g>
</g>
</svg>
