<?xml version="1.0" encoding="iso-8859-1"?>
<!-- Generator: Adobe Illustrator 18.0.0, SVG Export Plug-In . SVG Version: 6.00 Build 0)  -->
<!DOCTYPE svg PUBLIC "-//W3C//DTD SVG 1.1//EN" "http://www.w3.org/Graphics/SVG/1.1/DTD/svg11.dtd">
<svg version="1.1" id="Capa_1" xmlns="http://www.w3.org/2000/svg" xmlns:xlink="http://www.w3.org/1999/xlink" x="0px" y="0px"
	 viewBox="0 0 68.315 68.315" style="enable-background:new 0 0 68.315 68.315;" xml:space="preserve">
<g>
	<path style="fill:#231F20;" d="M38.815,11.108c0.316,0.19,0.673,0.285,1.029,0.285c0.322,0,0.646-0.078,0.94-0.235l5.932-3.16
		c0.652-0.347,1.06-1.026,1.06-1.765c0-0.739-0.407-1.418-1.06-1.765L40.784,1.31c-0.621-0.33-1.368-0.311-1.97,0.051
		c-0.603,0.361-0.971,1.012-0.971,1.715l0.001,6.319C37.845,10.096,38.213,10.747,38.815,11.108z"/>
	<path style="fill:#231F20;" d="M59.608,61.522V31c0-1.657-1.343-3-3-3H46.585v-3.082c1.377,0.798,3.15,0.392,4.021-0.959
		c0.898-1.393,0.498-3.249-0.895-4.147l-12.553-8.098V3c0-1.657-1.343-3-3-3s-3,1.343-3,3v8.716l-12.552,8.097
		c-1.393,0.898-1.793,2.755-0.895,4.147c0.573,0.889,1.538,1.374,2.523,1.374c0.511,0,1.026-0.138,1.496-0.41V28H11.708
		c-1.657,0-3,1.343-3,3v30.521c-5.015,0.72-8.05,1.654-8.05,2.676c0,2.273,14.999,4.117,33.5,4.117c18.501,0,33.5-1.844,33.5-4.117
		C67.658,63.176,64.622,62.242,59.608,61.522z M27.731,21.066l6.406-4.132c0.007,0,0.014,0.002,0.021,0.002
		c0.008,0,0.015-0.002,0.022-0.002l6.404,4.131v12.102H27.731V21.066z M14.708,34h7.023v2.167c0,1.657,1.343,3,3,3h18.854
		c1.657,0,3-1.343,3-3V34h7.023v26.846c-2.47-0.217-5.185-0.394-8.091-0.523c0.007-0.082,0.025-0.16,0.025-0.244v-3.418
		c0-5.811-4.819-10.539-10.742-10.539h-1.283c-5.923,0-10.742,4.728-10.742,10.539v3.418c0,0.083,0.018,0.162,0.025,0.243
		c-2.906,0.129-5.621,0.306-8.091,0.523V34z M28.769,60.134c0-0.018,0.005-0.035,0.005-0.054v-3.418
		c0-2.502,2.127-4.539,4.742-4.539H34.8c2.615,0,4.742,2.036,4.742,4.539v3.418c0,0.018,0.005,0.036,0.005,0.054
		c-1.755-0.035-3.554-0.054-5.39-0.054C32.322,60.08,30.524,60.099,28.769,60.134z"/>
</g>
<g>
</g>
<g>
</g>
<g>
</g>
<g>
</g>
<g>
</g>
<g>
</g>
<g>
</g>
<g>
</g>
<g>
</g>
<g>
</g>
<g>
</g>
<g>
</g>
<g>
</g>
<g>
</g>
<g>
</g>
</svg>
