<?xml version="1.0" encoding="iso-8859-1"?>
<!-- Generator: Adobe Illustrator 18.0.0, SVG Export Plug-In . SVG Version: 6.00 Build 0)  -->
<!DOCTYPE svg PUBLIC "-//W3C//DTD SVG 1.1//EN" "http://www.w3.org/Graphics/SVG/1.1/DTD/svg11.dtd">
<svg version="1.1" id="Capa_1" xmlns="http://www.w3.org/2000/svg" xmlns:xlink="http://www.w3.org/1999/xlink" x="0px" y="0px"
	 viewBox="0 0 55.167 55.167" style="enable-background:new 0 0 55.167 55.167;" xml:space="preserve">
<g>
	<path style="fill:#231F20;" d="M51.633,3.481h-5.487V3c0-1.657-1.343-3-3-3c-1.657,0-3,1.343-3,3v0.481h-4.375V3
		c0-1.657-1.343-3-3-3c-1.657,0-3,1.343-3,3v0.481h-4.376V3c0-1.657-1.343-3-3-3c-1.657,0-3,1.343-3,3v0.481H15.02V3
		c0-1.657-1.343-3-3-3c-1.657,0-3,1.343-3,3v0.481H3.534c-1.657,0-3,1.343-3,3v45.686c0,1.657,1.343,3,3,3h48.1c1.657,0,3-1.343,3-3
		V6.481C54.633,4.824,53.291,3.481,51.633,3.481z M9.02,9.481v0.916c0,1.657,1.343,3,3,3c1.657,0,3-1.343,3-3V9.481h4.375v0.916
		c0,1.657,1.343,3,3,3c1.657,0,3-1.343,3-3V9.481h4.376v0.916c0,1.657,1.343,3,3,3c1.657,0,3-1.343,3-3V9.481h4.375v0.916
		c0,1.657,1.343,3,3,3c1.657,0,3-1.343,3-3V9.481h2.487v4.554h-42.1V9.481H9.02z M6.534,49.167V20.035h42.1v29.132H6.534z"/>
	<path style="fill:#231F20;" d="M40.133,32.103l-1.944-1.383l0.538-2.323c0.096-0.411,0.014-0.843-0.227-1.19
		c-0.239-0.348-0.614-0.578-1.033-0.634l-2.362-0.32l-0.604-2.307c-0.106-0.408-0.381-0.752-0.754-0.948
		c-0.374-0.196-0.813-0.226-1.21-0.081l-2.24,0.814l-1.606-1.763c-0.568-0.624-1.648-0.624-2.218,0l-1.605,1.763l-2.241-0.814
		c-0.394-0.146-0.835-0.115-1.209,0.081c-0.374,0.196-0.647,0.541-0.754,0.949l-0.603,2.306l-2.363,0.321
		c-0.419,0.057-0.794,0.287-1.033,0.634c-0.24,0.347-0.322,0.779-0.227,1.191l0.538,2.323l-1.943,1.382
		c-0.344,0.245-0.568,0.623-0.619,1.042c-0.051,0.419,0.077,0.839,0.352,1.159l1.556,1.807l-1.079,2.127
		c-0.19,0.376-0.214,0.816-0.064,1.211c0.149,0.395,0.459,0.708,0.852,0.863l2.218,0.876l0.033,2.384
		c0.006,0.422,0.19,0.822,0.505,1.102c0.316,0.28,0.731,0.413,1.155,0.369l2.37-0.254l1.138,2.096c0.201,0.371,0.55,0.64,0.96,0.741
		c0.409,0.102,0.843,0.024,1.193-0.21l1.98-1.327l1.981,1.327c0.249,0.167,0.54,0.254,0.835,0.254c0.12,0,0.24-0.014,0.358-0.043
		c0.41-0.101,0.759-0.37,0.96-0.741l1.138-2.096l2.37,0.254c0.429,0.045,0.839-0.089,1.155-0.369c0.315-0.28,0.499-0.68,0.505-1.102
		l0.033-2.384l2.218-0.876c0.393-0.155,0.702-0.468,0.852-0.863c0.149-0.395,0.126-0.834-0.064-1.21l-1.079-2.127l1.557-1.807
		c0.275-0.32,0.403-0.741,0.353-1.16C40.703,32.725,40.477,32.347,40.133,32.103z M34.77,34.572c0,3.963-3.225,7.188-7.188,7.188
		c-3.962,0-7.186-3.225-7.186-7.188s3.224-7.188,7.186-7.188C31.545,27.384,34.77,30.608,34.77,34.572z"/>
</g>
<g>
</g>
<g>
</g>
<g>
</g>
<g>
</g>
<g>
</g>
<g>
</g>
<g>
</g>
<g>
</g>
<g>
</g>
<g>
</g>
<g>
</g>
<g>
</g>
<g>
</g>
<g>
</g>
<g>
</g>
</svg>
