<?xml version="1.0" encoding="iso-8859-1"?>
<!-- Generator: Adobe Illustrator 18.0.0, SVG Export Plug-In . SVG Version: 6.00 Build 0)  -->
<!DOCTYPE svg PUBLIC "-//W3C//DTD SVG 1.1//EN" "http://www.w3.org/Graphics/SVG/1.1/DTD/svg11.dtd">
<svg version="1.1" id="Capa_1" xmlns="http://www.w3.org/2000/svg" xmlns:xlink="http://www.w3.org/1999/xlink" x="0px" y="0px"
	 viewBox="0 0 67.642 67.642" style="enable-background:new 0 0 67.642 67.642;" xml:space="preserve">
<path style="fill:#231F20;" d="M58.626,5.823c1.559-0.562,2.367-2.28,1.806-3.839c-0.562-1.559-2.28-2.366-3.839-1.807l-12.5,4.5
	c-1.19,0.429-1.983,1.558-1.983,2.823v6.742h-7.593c-1.376-6.231-6.935-10.91-13.574-10.91c-7.67,0-13.91,6.24-13.91,13.91
	c0,6.639,4.679,12.198,10.91,13.575v33.824c0,1.657,1.343,3,3,3h35c1.657,0,3-1.343,3-3V17.242c0-1.657-1.343-3-3-3h-7.833V9.608
	L58.626,5.823z M17.942,17.242v7.315c-2.877-1.184-4.91-4.015-4.91-7.315c0-4.361,3.549-7.91,7.91-7.91
	c3.299,0,6.13,2.032,7.314,4.91h-7.314C19.285,14.242,17.942,15.585,17.942,17.242z M28.257,20.242
	c-0.803,1.951-2.363,3.511-4.314,4.315v-4.315H28.257z M29.264,52.708c-1.725,0-3.123-1.398-3.123-3.124
	c0-1.726,1.398-3.124,3.123-3.124c1.725,0,3.124,1.399,3.124,3.124C32.388,51.31,30.989,52.708,29.264,52.708z M35.072,56.286
	c-0.987,0-1.789-0.801-1.789-1.789c0-0.988,0.802-1.789,1.789-1.789c0.988,0,1.789,0.801,1.789,1.789
	C36.861,55.485,36.06,56.286,35.072,56.286z M35.61,46.936c-2.955,0-5.353-2.396-5.353-5.354c0-2.957,2.398-5.354,5.353-5.354
	c2.957,0,5.355,2.397,5.355,5.354C40.966,44.539,38.567,46.936,35.61,46.936z M42.109,32.415H23.942v-1.598
	c5.264-1.163,9.412-5.311,10.574-10.575h7.593V32.415z M52.942,20.242v12.173h-4.833V20.242H52.942z"/>
<g>
</g>
<g>
</g>
<g>
</g>
<g>
</g>
<g>
</g>
<g>
</g>
<g>
</g>
<g>
</g>
<g>
</g>
<g>
</g>
<g>
</g>
<g>
</g>
<g>
</g>
<g>
</g>
<g>
</g>
</svg>
