<?xml version="1.0" encoding="iso-8859-1"?>
<!-- Generator: Adobe Illustrator 18.0.0, SVG Export Plug-In . SVG Version: 6.00 Build 0)  -->
<!DOCTYPE svg PUBLIC "-//W3C//DTD SVG 1.1//EN" "http://www.w3.org/Graphics/SVG/1.1/DTD/svg11.dtd">
<svg version="1.1" id="Capa_1" xmlns="http://www.w3.org/2000/svg" xmlns:xlink="http://www.w3.org/1999/xlink" x="0px" y="0px"
	 viewBox="0 0 57.009 57.009" style="enable-background:new 0 0 57.009 57.009;" xml:space="preserve">
<path style="fill:#231F20;" d="M50.741,9.158c0-1.945-0.275-3.821-0.744-5.619c-0.056,0-0.11-0.008-0.166-0.008
	c-4.891,0-9.402,1.591-13.07,4.269C36.51,3.451,32.915,0,28.505,0s-8.005,3.451-8.255,7.799C16.581,5.121,12.07,3.53,7.179,3.53
	c-0.056,0-0.11,0.008-0.166,0.008C6.543,5.337,6.268,7.213,6.268,9.158c0,11.435,8.633,20.845,19.737,22.088v5.178
	c-2.011-2.169-4.879-3.53-8.07-3.53c-0.028,0-0.055,0.004-0.082,0.004c-0.232,0.891-0.369,1.821-0.369,2.785
	c0,5.226,3.641,9.591,8.521,10.724v8.103c0,1.381,1.119,2.5,2.5,2.5s2.5-1.119,2.5-2.5v-8.103c4.88-1.133,8.521-5.498,8.521-10.724
	c0-0.964-0.136-1.894-0.369-2.785c-0.028,0-0.055-0.004-0.082-0.004c-3.191,0-6.059,1.361-8.07,3.53v-5.177
	C42.108,30.003,50.741,20.593,50.741,9.158z"/>
<g>
</g>
<g>
</g>
<g>
</g>
<g>
</g>
<g>
</g>
<g>
</g>
<g>
</g>
<g>
</g>
<g>
</g>
<g>
</g>
<g>
</g>
<g>
</g>
<g>
</g>
<g>
</g>
<g>
</g>
</svg>
