<?xml version="1.0" encoding="iso-8859-1"?>
<!-- Generator: Adobe Illustrator 18.0.0, SVG Export Plug-In . SVG Version: 6.00 Build 0)  -->
<!DOCTYPE svg PUBLIC "-//W3C//DTD SVG 1.1//EN" "http://www.w3.org/Graphics/SVG/1.1/DTD/svg11.dtd">
<svg version="1.1" id="Capa_1" xmlns="http://www.w3.org/2000/svg" xmlns:xlink="http://www.w3.org/1999/xlink" x="0px" y="0px"
	 viewBox="0 0 62 62" style="enable-background:new 0 0 62 62;" xml:space="preserve">
<path style="fill:#231F20;" d="M59,14H3c-1.657,0-3,1.343-3,3c0,17.093,13.906,31,31,31c17.094,0,31-13.907,31-31
	C62,15.343,60.657,14,59,14z M39.477,22.524c1.306,0,2.363,1.937,2.363,4.327s-1.058,4.327-2.363,4.327
	c-1.305,0-2.363-1.937-2.363-4.327S38.172,22.524,39.477,22.524z M31,22.524c1.305,0,2.363,1.937,2.363,4.327
	S32.305,31.178,31,31.178c-1.305,0-2.363-1.937-2.363-4.327S29.695,22.524,31,22.524z M22.523,22.524
	c1.305,0,2.363,1.937,2.363,4.327s-1.059,4.327-2.363,4.327c-1.306,0-2.363-1.937-2.363-4.327S21.218,22.524,22.523,22.524z M31,42
	C18.229,42,7.665,32.376,6.179,20h3.713C11.021,30.662,20.038,38.97,31,38.97c10.962,0,19.979-8.309,21.109-18.97h3.713
	C54.335,32.376,43.77,42,31,42z"/>
<g>
</g>
<g>
</g>
<g>
</g>
<g>
</g>
<g>
</g>
<g>
</g>
<g>
</g>
<g>
</g>
<g>
</g>
<g>
</g>
<g>
</g>
<g>
</g>
<g>
</g>
<g>
</g>
<g>
</g>
</svg>
