<?xml version="1.0" encoding="iso-8859-1"?>
<!-- Generator: Adobe Illustrator 18.0.0, SVG Export Plug-In . SVG Version: 6.00 Build 0)  -->
<!DOCTYPE svg PUBLIC "-//W3C//DTD SVG 1.1//EN" "http://www.w3.org/Graphics/SVG/1.1/DTD/svg11.dtd">
<svg version="1.1" id="Capa_1" xmlns="http://www.w3.org/2000/svg" xmlns:xlink="http://www.w3.org/1999/xlink" x="0px" y="0px"
	 viewBox="0 0 71.77 71.77" style="enable-background:new 0 0 71.77 71.77;" xml:space="preserve">
<path style="fill:#231F20;" d="M65.896,42.864c2.431-2.268,3.823-5.665,3.823-9.866c0-0.645-0.001-1.318-0.02-2.002
	c1.224-0.626,2.07-1.885,2.07-3.354c0-2.086-1.689-3.776-3.773-3.781c-1.735-2.764-5.216-4.793-12.209-4.793
	c-4.978,0-14.364,0.004-17.586,5.575h-4.474c-3.222-5.57-12.608-5.575-17.586-5.575c-7.004,0-10.485,2.036-12.217,4.807
	c-0.048-0.002-0.094-0.014-0.142-0.014C1.694,23.86,0,25.553,0,27.642c0,1.533,0.916,2.846,2.227,3.44
	C2.211,31.737,2.21,32.38,2.21,32.999c0,4.153,1.361,7.52,3.74,9.787l-4.571,4.861c-1.135,1.207-1.076,3.105,0.13,4.241
	c0.58,0.544,1.318,0.814,2.055,0.814c0.799,0,1.596-0.317,2.187-0.945l5.748-6.112c0.977,0.209,2.011,0.33,3.108,0.33
	c7.207,0,18.865-7.011,20.127-15.332h2.464c1.262,8.321,12.92,15.332,20.127,15.332c1.049,0,2.04-0.109,2.979-0.3l5.719,6.083
	c0.591,0.628,1.388,0.945,2.187,0.945c0.736,0,1.475-0.27,2.054-0.814c1.207-1.135,1.266-3.034,0.131-4.241L65.896,42.864z
	 M14.605,39.975c-5.286,0-6.395-3.793-6.395-6.976c0-5.933,0-7.931,7.932-7.931c7.846,0,12.709,0.688,12.709,4.109
	C28.851,34.254,19.558,39.975,14.605,39.975z M57.323,39.975c-4.952,0-14.245-5.72-14.245-10.798c0-3.422,4.863-4.109,12.709-4.109
	c7.932,0,7.932,1.998,7.932,7.931C63.719,36.181,62.609,39.975,57.323,39.975z"/>
<g>
</g>
<g>
</g>
<g>
</g>
<g>
</g>
<g>
</g>
<g>
</g>
<g>
</g>
<g>
</g>
<g>
</g>
<g>
</g>
<g>
</g>
<g>
</g>
<g>
</g>
<g>
</g>
<g>
</g>
</svg>
