<?xml version="1.0" encoding="iso-8859-1"?>
<!-- Generator: Adobe Illustrator 18.0.0, SVG Export Plug-In . SVG Version: 6.00 Build 0)  -->
<!DOCTYPE svg PUBLIC "-//W3C//DTD SVG 1.1//EN" "http://www.w3.org/Graphics/SVG/1.1/DTD/svg11.dtd">
<svg version="1.1" id="Capa_1" xmlns="http://www.w3.org/2000/svg" xmlns:xlink="http://www.w3.org/1999/xlink" x="0px" y="0px"
	 viewBox="0 0 62.525 62.525" style="enable-background:new 0 0 62.525 62.525;" xml:space="preserve">
<g>
	<path style="fill:#231F20;" d="M62.468,32.517c-0.353-2.172-3.251-3.37-10.26-4.326c-1.227-0.167-2.555-0.315-3.943-0.449
		c-1.493-8.86-8.544-15.595-17.012-15.595c-8.469,0-15.525,6.735-17.017,15.596c-1.386,0.134-2.712,0.281-3.938,0.448
		C2.791,29.215,0,30.517,0,32.995c0,1.104,0.896,2,2,2h58.505c0.007-0.001,0.013,0,0.02,0c1.104,0,2-0.896,2-2
		C62.525,32.83,62.505,32.67,62.468,32.517z"/>
	<path style="fill:#231F20;" d="M41.753,37.303c-2.774,0-7.569,0.011-8.936,2.953h-3.128c-1.367-2.942-6.162-2.953-8.936-2.953
		c-6.791,0-6.791,3.607-6.791,6.79c0,3.877,2.29,6.285,5.977,6.285c3.764,0,9.943-3.775,10.118-8.122h2.391
		c0.176,4.347,6.355,8.122,10.119,8.122c3.687,0,5.977-2.408,5.977-6.285C48.543,40.911,48.543,37.303,41.753,37.303z"/>
</g>
<g>
</g>
<g>
</g>
<g>
</g>
<g>
</g>
<g>
</g>
<g>
</g>
<g>
</g>
<g>
</g>
<g>
</g>
<g>
</g>
<g>
</g>
<g>
</g>
<g>
</g>
<g>
</g>
<g>
</g>
</svg>
