<?xml version="1.0" encoding="iso-8859-1"?>
<!-- Generator: Adobe Illustrator 18.0.0, SVG Export Plug-In . SVG Version: 6.00 Build 0)  -->
<!DOCTYPE svg PUBLIC "-//W3C//DTD SVG 1.1//EN" "http://www.w3.org/Graphics/SVG/1.1/DTD/svg11.dtd">
<svg version="1.1" id="Capa_1" xmlns="http://www.w3.org/2000/svg" xmlns:xlink="http://www.w3.org/1999/xlink" x="0px" y="0px"
	 viewBox="0 0 59.619 59.619" style="enable-background:new 0 0 59.619 59.619;" xml:space="preserve">
<path style="fill:#231F20;" d="M59.526,6.998c-3.046-4.274-7.567-6.727-12.404-6.727c-2.963,0-5.867,0.949-8.398,2.744
	c-3.068,2.176-5.278,5.406-6.484,9.056c-0.961-3.208-2.93-6.014-5.697-7.711c-1.753-1.074-3.725-1.642-5.703-1.642
	c-3.906,0-7.589,2.162-9.854,5.784c-0.108,0.173-0.101,0.395,0.02,0.56c0.12,0.165,0.329,0.241,0.527,0.189
	c2.389-0.606,4.983-0.553,7.491,0.153c0.143,0.041,0.292,0.017,0.414-0.065c0.122-0.081,0.202-0.212,0.219-0.357l0.122-1.025
	l1.111,1.998c0.053,0.096,0.136,0.171,0.236,0.215c0.814,0.357,1.479,0.698,2.092,1.073c0.501,0.308,1.011,0.662,1.56,1.085
	c0.144,0.111,0.338,0.134,0.504,0.063c0.167-0.073,0.281-0.23,0.298-0.412l0.094-0.985l0.954,2.899
	c0.024,0.072,0.064,0.139,0.117,0.192c1.514,1.553,2.765,3.372,3.683,5.338c-2.328-2.892-5.654-4.675-9.209-4.675
	c-0.706,0-1.419,0.069-2.12,0.205c-6.152,1.2-10.623,7.479-10.399,14.604c0.006,0.214,0.148,0.399,0.353,0.462
	c0.048,0.016,0.098,0.022,0.147,0.022c0.157,0,0.309-0.074,0.405-0.206c1.635-2.254,3.801-4.109,6.264-5.365
	c0.245-0.125,0.343-0.424,0.22-0.67l-0.565-1.125l2.14,0.88c0.112,0.046,0.238,0.051,0.354,0.011
	c0.866-0.301,1.599-0.505,2.308-0.644c0.568-0.11,1.181-0.191,1.874-0.247c0.168-0.013,0.318-0.11,0.399-0.258
	c0.081-0.148,0.082-0.327,0.002-0.476l-0.604-1.133l2.529,1.784c0.073,0.052,0.159,0.083,0.248,0.09
	c2.171,0.176,4.266,0.798,6.152,1.804l-2.074,12.736l-12.185-7.034c-0.619-0.357-1.381-0.357-2,0l-4.348,2.511
	c-0.04-1.069-0.919-1.925-1.999-1.925H6.402c-1.104,0-2,0.896-2,2v3.34L1,38.078c-0.619,0.357-1,1.018-1,1.732v15.78
	c0,1.104,0.896,2,2,2h7.073c1.104,0,2-0.896,2-2v-4.408c0-2.533,2.061-4.594,4.593-4.594c2.533,0,4.594,2.061,4.594,4.594v4.408
	c0,1.104,0.896,2,2,2h3.274l-0.192,1.178c-0.023,0.145,0.018,0.292,0.113,0.404c0.095,0.111,0.234,0.176,0.381,0.176h11.852
	c0.007,0,0.013,0,0.02,0c0.276,0,0.5-0.224,0.5-0.5c0-0.063-0.012-0.123-0.033-0.179l-1.337-16.297
	c-0.012-0.143-0.084-0.273-0.199-0.359c-0.114-0.086-0.259-0.115-0.401-0.089l-2.631,0.548c0.639-0.989,1.679-2.594,2.783-4.269
	c0.062-0.094,0.09-0.205,0.081-0.316l-1.1-13.395c1.465-1.146,3.12-2.044,4.891-2.629c0.082-0.026,0.154-0.074,0.212-0.137
	l1.985-2.168l-0.329,1.063c-0.051,0.165-0.013,0.346,0.101,0.476c0.114,0.131,0.288,0.198,0.458,0.165
	c0.659-0.107,1.251-0.172,1.809-0.199c0.719-0.031,1.422-0.009,2.284,0.076c0.117,0.005,0.239-0.021,0.338-0.091l1.788-1.27
	l-0.309,1.096c-0.037,0.131-0.019,0.271,0.05,0.388s0.182,0.202,0.314,0.234c2.532,0.613,4.892,1.86,6.824,3.604
	c0.157,0.142,0.386,0.169,0.572,0.069c0.186-0.101,0.289-0.307,0.257-0.516c-1.042-6.816-6.31-11.735-12.412-11.419
	c-1.759,0.083-3.422,0.612-4.916,1.475l1.043-3.893l0.314,2.081c0.027,0.182,0.151,0.333,0.323,0.396
	c0.173,0.063,0.364,0.026,0.501-0.094c0.718-0.63,1.376-1.155,2.015-1.607c0.796-0.564,1.663-1.088,2.729-1.645
	c0.095-0.05,0.172-0.13,0.219-0.227l1.561-3.241l0.325,1.851c0.026,0.146,0.114,0.272,0.242,0.347s0.281,0.088,0.42,0.038
	c3.325-1.197,6.797-1.52,10.056-0.937c0.2,0.033,0.401-0.053,0.51-0.225S59.644,7.163,59.526,6.998z"/>
<g>
</g>
<g>
</g>
<g>
</g>
<g>
</g>
<g>
</g>
<g>
</g>
<g>
</g>
<g>
</g>
<g>
</g>
<g>
</g>
<g>
</g>
<g>
</g>
<g>
</g>
<g>
</g>
<g>
</g>
</svg>
