<?xml version="1.0" encoding="iso-8859-1"?>
<!-- Generator: Adobe Illustrator 18.0.0, SVG Export Plug-In . SVG Version: 6.00 Build 0)  -->
<!DOCTYPE svg PUBLIC "-//W3C//DTD SVG 1.1//EN" "http://www.w3.org/Graphics/SVG/1.1/DTD/svg11.dtd">
<svg version="1.1" id="Capa_1" xmlns="http://www.w3.org/2000/svg" xmlns:xlink="http://www.w3.org/1999/xlink" x="0px" y="0px"
	 viewBox="0 0 64.139 64.139" style="enable-background:new 0 0 64.139 64.139;" xml:space="preserve">
<path style="fill:#231F20;" d="M53.953,22.549c-0.438-0.737-1.031-1.411-1.771-1.984c0.105-0.458,0.158-0.927,0.158-1.404
	c0-3.261-2.453-6.021-6.271-7.245C43.111,4.98,32.076,1.641,28.236,0.479c-0.24-0.073-0.437-0.131-0.581-0.176
	c-1.304-0.637-2.913-0.249-3.77,0.975c-1.246,1.777-1.124,3.523-1.035,4.799c0.095,1.358,0.158,2.262-1.468,3.965
	c-0.787,0.72-1.476,1.396-2.088,2.051c-1.993,0.896-2.956,2.583-3.562,3.644c-0.108,0.19-0.245,0.428-0.351,0.594
	c-3.103,0.863-4.941,3.524-5.668,6.345c-1.169,0.41-2.014,1.511-2.014,2.821c0,1.657,1.343,3,3,3h1.652h1.076v7.525
	c0,2.739,1.498,5.129,3.713,6.41l4.397,19.37c0.31,1.366,1.525,2.336,2.926,2.336h15.213c1.401,0,2.615-0.97,2.926-2.336
	l4.397-19.37c2.216-1.281,3.713-3.672,3.713-6.41v-7.525h1.076h1.652c1.657,0,3-1.343,3-3
	C56.441,24.017,55.365,22.794,53.953,22.549z M37.281,58.139H26.859l-3.339-14.71h17.1L37.281,58.139z M44.712,36.023
	c0,0.775-0.631,1.406-1.406,1.406H20.833c-0.775,0-1.406-0.631-1.406-1.406v-7.525h25.285V36.023z"/>
<g>
</g>
<g>
</g>
<g>
</g>
<g>
</g>
<g>
</g>
<g>
</g>
<g>
</g>
<g>
</g>
<g>
</g>
<g>
</g>
<g>
</g>
<g>
</g>
<g>
</g>
<g>
</g>
<g>
</g>
</svg>
