<?xml version="1.0" encoding="iso-8859-1"?>
<!-- Generator: Adobe Illustrator 18.0.0, SVG Export Plug-In . SVG Version: 6.00 Build 0)  -->
<!DOCTYPE svg PUBLIC "-//W3C//DTD SVG 1.1//EN" "http://www.w3.org/Graphics/SVG/1.1/DTD/svg11.dtd">
<svg version="1.1" id="Capa_1" xmlns="http://www.w3.org/2000/svg" xmlns:xlink="http://www.w3.org/1999/xlink" x="0px" y="0px"
	 viewBox="0 0 54.009 54.009" style="enable-background:new 0 0 54.009 54.009;" xml:space="preserve">
<path style="fill:#231F20;" d="M49.462,0.834c-1.196-1.146-3.096-1.106-4.241,0.093L2.837,45.202
	c-1.985,2.074-1.914,5.377,0.16,7.364c0.973,0.931,2.251,1.443,3.601,1.443c1.416,0,2.787-0.585,3.764-1.604l10.857-11.342
	l0.753,0.721c0.581,0.557,1.328,0.833,2.074,0.833c0.789,0,1.578-0.31,2.167-0.926l22.823-23.842
	c2.063-2.154,3.357-5.19,3.554-8.329C52.802,6.105,51.663,2.939,49.462,0.834z"/>
<g>
</g>
<g>
</g>
<g>
</g>
<g>
</g>
<g>
</g>
<g>
</g>
<g>
</g>
<g>
</g>
<g>
</g>
<g>
</g>
<g>
</g>
<g>
</g>
<g>
</g>
<g>
</g>
<g>
</g>
</svg>
