<?xml version="1.0" encoding="iso-8859-1"?>
<!-- Generator: Adobe Illustrator 18.0.0, SVG Export Plug-In . SVG Version: 6.00 Build 0)  -->
<!DOCTYPE svg PUBLIC "-//W3C//DTD SVG 1.1//EN" "http://www.w3.org/Graphics/SVG/1.1/DTD/svg11.dtd">
<svg version="1.1" id="Capa_1" xmlns="http://www.w3.org/2000/svg" xmlns:xlink="http://www.w3.org/1999/xlink" x="0px" y="0px"
	 viewBox="0 0 66.072 66.072" style="enable-background:new 0 0 66.072 66.072;" xml:space="preserve">
<g>
	<path style="fill:#231F20;" d="M48.478,15.384V7.265C48.478,3.259,45.218,0,41.212,0H24.859c-4.006,0-7.265,3.259-7.265,7.265
		v8.119c-4.548,0.938-7.977,4.973-7.977,9.794v26.837c0,4.821,3.429,8.856,7.977,9.794v1.264c0,1.657,1.343,3,3,3s3-1.343,3-3
		v-1.058h18.883v1.058c0,1.657,1.343,3,3,3s3-1.343,3-3v-1.264c4.548-0.938,7.977-4.973,7.977-9.794V25.178
		C56.455,20.356,53.025,16.322,48.478,15.384z M24.859,6h16.353c0.698,0,1.266,0.567,1.266,1.265v7.913H23.595V7.265
		C23.595,6.567,24.162,6,24.859,6z M15.618,52.015V25.178c0-1.464,0.8-2.734,1.977-3.431v33.699
		C16.417,54.749,15.618,53.479,15.618,52.015z M23.595,56.015V21.178h18.883v34.837H23.595z M50.455,52.015
		c0,1.464-0.8,2.734-1.977,3.431V21.747c1.177,0.697,1.977,1.967,1.977,3.431V52.015z"/>
	<path style="fill:#231F20;" d="M41.328,37.5c-0.051-0.419-0.276-0.797-0.62-1.042l-0.79-0.562l0.219-0.943
		c0.096-0.412,0.013-0.844-0.227-1.191c-0.24-0.347-0.615-0.578-1.033-0.634l-0.96-0.13l-0.245-0.938
		c-0.106-0.408-0.38-0.752-0.754-0.949c-0.374-0.196-0.813-0.226-1.209-0.082l-0.911,0.331l-0.653-0.717
		c-0.568-0.623-1.649-0.625-2.217,0l-0.652,0.716l-0.911-0.331c-0.397-0.146-0.836-0.115-1.209,0.082
		c-0.374,0.196-0.647,0.541-0.754,0.949l-0.245,0.938l-0.961,0.13c-0.418,0.057-0.793,0.287-1.033,0.634
		c-0.24,0.347-0.322,0.779-0.227,1.19l0.219,0.944l-0.79,0.562c-0.344,0.245-0.569,0.623-0.62,1.042s0.077,0.84,0.353,1.16
		l0.633,0.735l-0.438,0.863c-0.191,0.376-0.214,0.816-0.065,1.21c0.15,0.395,0.458,0.708,0.851,0.863l0.901,0.356l0.014,0.969
		c0.006,0.422,0.189,0.822,0.505,1.102c0.315,0.28,0.736,0.409,1.154,0.369l0.964-0.104l0.462,0.853
		c0.202,0.371,0.55,0.64,0.96,0.741c0.41,0.101,0.843,0.024,1.194-0.21l0.804-0.54l0.805,0.54c0.249,0.167,0.54,0.254,0.835,0.254
		c0.12,0,0.24-0.014,0.359-0.043c0.41-0.101,0.758-0.37,0.959-0.741l0.462-0.852l0.963,0.103c0.419,0.044,0.838-0.089,1.155-0.368
		c0.316-0.28,0.499-0.68,0.505-1.102l0.014-0.969l0.901-0.356c0.393-0.155,0.701-0.469,0.851-0.863
		c0.149-0.395,0.126-0.834-0.065-1.21l-0.438-0.864l0.633-0.734C41.251,38.34,41.379,37.919,41.328,37.5z M36.596,38.407
		c0,1.963-1.597,3.56-3.56,3.56c-1.962,0-3.559-1.597-3.559-3.56s1.597-3.56,3.559-3.56C34.999,34.848,36.596,36.444,36.596,38.407z
		"/>
</g>
<g>
</g>
<g>
</g>
<g>
</g>
<g>
</g>
<g>
</g>
<g>
</g>
<g>
</g>
<g>
</g>
<g>
</g>
<g>
</g>
<g>
</g>
<g>
</g>
<g>
</g>
<g>
</g>
<g>
</g>
</svg>
