<?xml version="1.0" encoding="iso-8859-1"?>
<!-- Generator: Adobe Illustrator 18.0.0, SVG Export Plug-In . SVG Version: 6.00 Build 0)  -->
<!DOCTYPE svg PUBLIC "-//W3C//DTD SVG 1.1//EN" "http://www.w3.org/Graphics/SVG/1.1/DTD/svg11.dtd">
<svg version="1.1" id="Capa_1" xmlns="http://www.w3.org/2000/svg" xmlns:xlink="http://www.w3.org/1999/xlink" x="0px" y="0px"
	 viewBox="0 0 56.461 56.461" style="enable-background:new 0 0 56.461 56.461;" xml:space="preserve">
<path style="fill:#231F20;" d="M56.436,52.241L50.206,3.46c-0.191-1.498-1.466-2.62-2.976-2.62h-38c-1.51,0-2.784,1.122-2.975,2.62
	l-6.23,48.781c-0.109,0.855,0.154,1.715,0.724,2.362C1.317,55.25,2.138,55.621,3,55.621h20.5c1.422,0,2.648-0.998,2.937-2.391
	l1.793-8.643l1.793,8.643c0.289,1.393,1.516,2.391,2.937,2.391h20.5c0.862,0,1.683-0.371,2.252-1.018
	C56.282,53.956,56.546,53.096,56.436,52.241z M44.589,6.84l0.398,3.114H11.474l0.398-3.114H44.589z M35.402,49.621L31.168,29.21
	c-0.289-1.393-1.516-2.391-2.938-2.391c-1.422,0-2.648,0.998-2.938,2.391l-4.234,20.411H6.407l4.684-36.667H45.37l4.684,36.667
	H35.402z"/>
<g>
</g>
<g>
</g>
<g>
</g>
<g>
</g>
<g>
</g>
<g>
</g>
<g>
</g>
<g>
</g>
<g>
</g>
<g>
</g>
<g>
</g>
<g>
</g>
<g>
</g>
<g>
</g>
<g>
</g>
</svg>
