<?xml version="1.0" encoding="iso-8859-1"?>
<!-- Generator: Adobe Illustrator 18.0.0, SVG Export Plug-In . SVG Version: 6.00 Build 0)  -->
<!DOCTYPE svg PUBLIC "-//W3C//DTD SVG 1.1//EN" "http://www.w3.org/Graphics/SVG/1.1/DTD/svg11.dtd">
<svg version="1.1" id="Capa_1" xmlns="http://www.w3.org/2000/svg" xmlns:xlink="http://www.w3.org/1999/xlink" x="0px" y="0px"
	 viewBox="0 0 59.618 59.618" style="enable-background:new 0 0 59.618 59.618;" xml:space="preserve">
<g>
	<path style="fill:#231F20;" d="M42.224,10.737c-4.205-4.205-9.797-6.521-15.743-6.521c-5.947,0-11.538,2.316-15.743,6.521
		S4.216,20.533,4.216,26.48c0,5.946,2.316,11.537,6.521,15.742s9.796,6.521,15.743,6.521c5.946,0,11.538-2.316,15.743-6.521
		C50.904,33.542,50.904,19.418,42.224,10.737z M41.109,38.988L30.102,27.98h15.563C45.358,31.933,43.838,35.8,41.109,38.988z
		 M7.289,27.98h15.57L11.85,38.99C9.185,35.882,7.602,32.062,7.289,27.98z M11.849,13.971l11.01,11.01H7.289
		C7.602,20.898,9.184,17.078,11.849,13.971z M27.98,7.289c4.082,0.313,7.902,1.895,11.01,4.561l-11.01,11.01V7.289z M24.98,22.859
		l-4.379-4.379c0.634-0.125,1.24-0.432,1.731-0.924c1.319-1.319,1.319-3.457,0-4.776c-1.319-1.319-3.457-1.319-4.776,0
		c-0.492,0.492-0.799,1.097-0.924,1.731l-2.662-2.662c3.108-2.665,6.927-4.248,11.01-4.561V22.859z M24.98,30.102v7.725
		c-1.574-0.714-3.487-0.437-4.782,0.858c-1.648,1.648-1.661,4.303-0.054,5.976c-2.246-0.781-4.335-1.972-6.174-3.549L24.98,30.102z
		 M24.98,45.583v0.088c-0.051-0.004-0.102-0.003-0.153-0.007C24.881,45.642,24.928,45.607,24.98,45.583z M27.98,30.102L38.99,41.111
		c-3.108,2.665-6.928,4.247-11.009,4.56V30.102z M30.102,24.98l11.008-11.008c0.464,0.542,0.899,1.101,1.293,1.68
		c-1.308-0.15-2.668,0.258-3.672,1.261c-1.747,1.747-1.747,4.579,0,6.325s4.579,1.747,6.325,0c0.127-0.127,0.224-0.27,0.333-0.407
		c0.136,0.711,0.22,1.428,0.276,2.148H30.102z"/>
	<path style="fill:#231F20;" d="M58.305,51.945L48.112,41.753c3.147-4.437,4.849-9.722,4.849-15.272
		c0-7.074-2.754-13.724-7.756-18.725C40.203,2.754,33.554,0,26.48,0C19.406,0,12.757,2.754,7.756,7.756
		C2.754,12.757,0,19.406,0,26.48c0,7.073,2.754,13.723,7.756,18.725c5.001,5.002,11.65,7.756,18.725,7.756
		c5.55,0,10.835-1.702,15.272-4.849l10.193,10.193c0.847,0.847,1.977,1.313,3.18,1.313c1.204,0,2.334-0.467,3.18-1.313
		c0.847-0.846,1.313-1.976,1.313-3.18C59.618,53.922,59.151,52.792,58.305,51.945z M9.877,43.084C5.442,38.648,3,32.752,3,26.48
		c0-6.272,2.442-12.169,6.877-16.604S20.208,3,26.48,3c6.271,0,12.168,2.442,16.604,6.877c4.435,4.435,6.877,10.331,6.877,16.604
		c0,6.271-2.442,12.168-6.877,16.604c-4.436,4.435-10.332,6.877-16.604,6.877C20.208,49.961,14.312,47.519,9.877,43.084z"/>
	<circle style="fill:#231F20;" cx="21.804" cy="9.617" r="0.767"/>
	<circle style="fill:#231F20;" cx="31.308" cy="13.015" r="1.981"/>
	<circle style="fill:#231F20;" cx="39.44" cy="33.115" r="2.282"/>
	<circle style="fill:#231F20;" cx="32.857" cy="38.149" r="1.187"/>
	<circle style="fill:#231F20;" cx="15.062" cy="32.389" r="2.212"/>
	<circle style="fill:#231F20;" cx="11.683" cy="20.332" r="1.187"/>
</g>
<g>
</g>
<g>
</g>
<g>
</g>
<g>
</g>
<g>
</g>
<g>
</g>
<g>
</g>
<g>
</g>
<g>
</g>
<g>
</g>
<g>
</g>
<g>
</g>
<g>
</g>
<g>
</g>
<g>
</g>
</svg>
