<?xml version="1.0" encoding="iso-8859-1"?>
<!-- Generator: Adobe Illustrator 18.0.0, SVG Export Plug-In . SVG Version: 6.00 Build 0)  -->
<!DOCTYPE svg PUBLIC "-//W3C//DTD SVG 1.1//EN" "http://www.w3.org/Graphics/SVG/1.1/DTD/svg11.dtd">
<svg version="1.1" id="Capa_1" xmlns="http://www.w3.org/2000/svg" xmlns:xlink="http://www.w3.org/1999/xlink" x="0px" y="0px"
	 viewBox="0 0 69.415 69.415" style="enable-background:new 0 0 69.415 69.415;" xml:space="preserve">
<path style="fill:#231F20;" d="M68.741,24.646L56.166,9.204c-0.57-0.699-1.424-1.106-2.326-1.106H15.576
	c-0.902,0-1.756,0.406-2.326,1.106L0.674,24.646c-0.507,0.623-0.743,1.423-0.656,2.221c0.087,0.798,0.491,1.528,1.121,2.026
	l10.61,8.395c0.625,0.495,1.425,0.723,2.217,0.626c0.793-0.095,1.515-0.501,2.007-1.13l1.568-2.005v23.537c0,1.657,1.343,3,3,3
	h28.332c1.657,0,3-1.343,3-3V34.78l1.568,2.005c0.492,0.629,1.214,1.036,2.007,1.13c0.795,0.095,1.591-0.131,2.217-0.626
	l10.61-8.395c0.63-0.498,1.034-1.228,1.121-2.026C69.484,26.069,69.249,25.269,68.741,24.646z M39.996,14.098
	c-0.858,2.078-2.904,3.545-5.289,3.545s-4.431-1.467-5.289-3.545H39.996z M56.309,30.712l-5.072-6.484
	c-0.79-1.009-2.131-1.406-3.34-0.988c-1.21,0.417-2.022,1.556-2.022,2.837v29.24H23.542v-29.24c0-1.28-0.812-2.419-2.023-2.837
	c-1.21-0.418-2.552-0.021-3.34,0.988l-5.072,6.484l-5.859-4.636l9.754-11.978h6.195c1.024,5.426,5.792,9.545,11.511,9.545
	c5.719,0,10.487-4.12,11.511-9.545h6.195l9.754,11.978L56.309,30.712z"/>
<g>
</g>
<g>
</g>
<g>
</g>
<g>
</g>
<g>
</g>
<g>
</g>
<g>
</g>
<g>
</g>
<g>
</g>
<g>
</g>
<g>
</g>
<g>
</g>
<g>
</g>
<g>
</g>
<g>
</g>
</svg>
