<?xml version="1.0" encoding="iso-8859-1"?>
<!-- Generator: Adobe Illustrator 18.0.0, SVG Export Plug-In . SVG Version: 6.00 Build 0)  -->
<!DOCTYPE svg PUBLIC "-//W3C//DTD SVG 1.1//EN" "http://www.w3.org/Graphics/SVG/1.1/DTD/svg11.dtd">
<svg version="1.1" id="Capa_1" xmlns="http://www.w3.org/2000/svg" xmlns:xlink="http://www.w3.org/1999/xlink" x="0px" y="0px"
	 viewBox="0 0 64.903 64.903" style="enable-background:new 0 0 64.903 64.903;" xml:space="preserve">
<path style="fill:#231F20;" d="M53.768,25.691c-1.551-0.757-2.515-2.294-2.515-4.009V3c0-1.657-1.343-3-3-3h-8.335
	c-1.657,0-3,1.343-3,3v5.682c0,2.462-2.003,4.465-4.466,4.465c-2.462,0-4.466-2.003-4.466-4.465V3c0-1.657-1.343-3-3-3H16.65
	c-1.657,0-3,1.343-3,3v18.682c0,1.715-0.964,3.251-2.515,4.009c-1.031,0.503-1.684,1.549-1.684,2.696v33.517c0,1.657,1.343,3,3,3h40
	c1.657,0,3-1.343,3-3V28.387C55.452,27.24,54.798,26.194,53.768,25.691z M49.452,58.903h-34V30.059
	c2.629-1.952,4.199-5.017,4.199-8.377V6h2.335v2.682c0,5.771,4.695,10.465,10.466,10.465s10.466-4.695,10.466-10.465V6h2.335v15.682
	c0,3.361,1.57,6.426,4.199,8.378V58.903z"/>
<g>
</g>
<g>
</g>
<g>
</g>
<g>
</g>
<g>
</g>
<g>
</g>
<g>
</g>
<g>
</g>
<g>
</g>
<g>
</g>
<g>
</g>
<g>
</g>
<g>
</g>
<g>
</g>
<g>
</g>
</svg>
