<?xml version="1.0" encoding="iso-8859-1"?>
<!-- Generator: Adobe Illustrator 18.0.0, SVG Export Plug-In . SVG Version: 6.00 Build 0)  -->
<!DOCTYPE svg PUBLIC "-//W3C//DTD SVG 1.1//EN" "http://www.w3.org/Graphics/SVG/1.1/DTD/svg11.dtd">
<svg version="1.1" id="Capa_1" xmlns="http://www.w3.org/2000/svg" xmlns:xlink="http://www.w3.org/1999/xlink" x="0px" y="0px"
	 viewBox="0 0 58.439 58.439" style="enable-background:new 0 0 58.439 58.439;" xml:space="preserve">
<g>
	<path style="fill:#231F20;" d="M52.377,18.463c0.829,0,1.5-0.671,1.5-1.5s-0.671-1.5-1.5-1.5h-5.349v-4.987h5.349
		c0.829,0,1.5-0.671,1.5-1.5s-0.671-1.5-1.5-1.5h-5.349V5.665C47.028,2.541,44.487,0,41.364,0c-3.124,0-5.665,2.541-5.665,5.665
		v32.851c-3.062,1.903-5.111,5.287-5.111,9.149c0,5.941,4.834,10.775,10.776,10.775c5.941,0,10.775-4.833,10.775-10.775
		c0-3.862-2.049-7.247-5.111-9.149v-4.077h5.349c0.829,0,1.5-0.671,1.5-1.5c0-0.829-0.671-1.5-1.5-1.5h-5.349V26.45h5.349
		c0.829,0,1.5-0.671,1.5-1.5s-0.671-1.5-1.5-1.5h-5.349v-4.987H52.377z M41.364,36.889c-0.224,0-0.444,0.02-0.665,0.034V5.665
		C40.699,5.298,40.997,5,41.364,5c0.366,0,0.664,0.298,0.664,0.665v31.258C41.807,36.909,41.588,36.889,41.364,36.889z"/>
	<path style="fill:#231F20;" d="M34.19,31.231c0.15-0.394,0.126-0.834-0.065-1.21l-1.352-2.665l1.951-2.265
		c0.275-0.32,0.403-0.741,0.353-1.16c-0.051-0.419-0.276-0.797-0.62-1.042l-2.436-1.732l0.675-2.911
		c0.095-0.411,0.013-0.844-0.227-1.191c-0.24-0.348-0.615-0.578-1.033-0.634l-2.962-0.401l-0.756-2.891
		c-0.107-0.408-0.38-0.753-0.754-0.949c-0.373-0.196-0.812-0.226-1.21-0.082l-2.808,1.02l-2.013-2.209
		c-0.569-0.624-1.649-0.624-2.218,0l-2.013,2.209l-2.808-1.02c-0.397-0.146-0.835-0.115-1.209,0.082
		c-0.374,0.196-0.647,0.54-0.754,0.948l-0.756,2.892l-2.961,0.401c-0.418,0.057-0.793,0.287-1.033,0.634
		c-0.24,0.347-0.322,0.779-0.227,1.19l0.675,2.912l-2.436,1.732c-0.344,0.245-0.569,0.623-0.62,1.042
		c-0.051,0.419,0.077,0.84,0.352,1.16l1.951,2.265l-1.352,2.665c-0.191,0.376-0.214,0.816-0.064,1.21
		c0.149,0.395,0.458,0.708,0.851,0.863l2.779,1.099l0.042,2.988c0.006,0.422,0.189,0.822,0.505,1.102
		c0.315,0.28,0.737,0.409,1.154,0.369l2.971-0.318l1.426,2.626c0.201,0.371,0.55,0.64,0.96,0.741
		c0.409,0.102,0.843,0.024,1.194-0.21l2.483-1.664l2.483,1.664c0.25,0.167,0.541,0.254,0.835,0.254c0.12,0,0.24-0.014,0.359-0.043
		c0.41-0.101,0.758-0.37,0.959-0.741l1.426-2.627l2.971,0.318c0.421,0.044,0.839-0.088,1.155-0.368c0.316-0.28,0.5-0.68,0.505-1.102
		l0.042-2.988l2.779-1.099C33.731,31.939,34.04,31.626,34.19,31.231z M28.561,25.583c0,4.817-3.919,8.736-8.736,8.736
		S11.09,30.4,11.09,25.583c0-4.817,3.918-8.736,8.735-8.736S28.561,20.766,28.561,25.583z"/>
</g>
<g>
</g>
<g>
</g>
<g>
</g>
<g>
</g>
<g>
</g>
<g>
</g>
<g>
</g>
<g>
</g>
<g>
</g>
<g>
</g>
<g>
</g>
<g>
</g>
<g>
</g>
<g>
</g>
<g>
</g>
</svg>
