<?xml version="1.0" encoding="iso-8859-1"?>
<!-- Generator: Adobe Illustrator 18.0.0, SVG Export Plug-In . SVG Version: 6.00 Build 0)  -->
<!DOCTYPE svg PUBLIC "-//W3C//DTD SVG 1.1//EN" "http://www.w3.org/Graphics/SVG/1.1/DTD/svg11.dtd">
<svg version="1.1" id="Capa_1" xmlns="http://www.w3.org/2000/svg" xmlns:xlink="http://www.w3.org/1999/xlink" x="0px" y="0px"
	 viewBox="0 0 71.787 71.787" style="enable-background:new 0 0 71.787 71.787;" xml:space="preserve">
<path style="fill:#231F20;" d="M70.287,20.151h-2.416c-0.062-0.496-0.238-0.976-0.54-1.391c-0.564-0.777-1.467-1.237-2.428-1.237
	H16.889c-1.299,0-2.45,0.836-2.853,2.071l-0.181,0.557h-3.083c-0.828,0-1.5,0.671-1.5,1.5s0.672,1.5,1.5,1.5h2.107l-2.053,6.307
	H7.742c-0.828,0-1.5,0.671-1.5,1.5c0,0.829,0.672,1.5,1.5,1.5h2.107L7.613,39.33H4.529c-0.828,0-1.5,0.671-1.5,1.5
	c0,0.829,0.672,1.5,1.5,1.5h2.107l-2.053,6.307H1.5c-0.828,0-1.5,0.671-1.5,1.5c0,0.829,0.672,1.5,1.5,1.5h2.415
	c0.062,0.496,0.238,0.976,0.54,1.391c0.564,0.777,1.467,1.237,2.428,1.237h48.016c1.299,0,2.45-0.836,2.853-2.071l0.181-0.557h3.083
	c0.828,0,1.5-0.671,1.5-1.5c0-0.829-0.672-1.5-1.5-1.5h-2.107l2.053-6.307h3.083c0.828,0,1.5-0.671,1.5-1.5
	c0-0.829-0.672-1.5-1.5-1.5h-2.107l2.237-6.872h3.083c0.828,0,1.5-0.671,1.5-1.5c0-0.829-0.672-1.5-1.5-1.5h-2.107l2.053-6.307
	h3.084c0.828,0,1.5-0.671,1.5-1.5S71.115,20.151,70.287,20.151z M15.07,48.265l8.053-24.742h33.594l-8.053,24.742H15.07z
	 M19.067,23.522h0.9l-8.053,24.742h-0.9L19.067,23.522z M51.82,48.265l8.053-24.742h0.901L52.72,48.265H51.82z"/>
<g>
</g>
<g>
</g>
<g>
</g>
<g>
</g>
<g>
</g>
<g>
</g>
<g>
</g>
<g>
</g>
<g>
</g>
<g>
</g>
<g>
</g>
<g>
</g>
<g>
</g>
<g>
</g>
<g>
</g>
</svg>
