<?xml version="1.0" encoding="iso-8859-1"?>
<!-- Generator: Adobe Illustrator 18.0.0, SVG Export Plug-In . SVG Version: 6.00 Build 0)  -->
<!DOCTYPE svg PUBLIC "-//W3C//DTD SVG 1.1//EN" "http://www.w3.org/Graphics/SVG/1.1/DTD/svg11.dtd">
<svg version="1.1" id="Capa_1" xmlns="http://www.w3.org/2000/svg" xmlns:xlink="http://www.w3.org/1999/xlink" x="0px" y="0px"
	 viewBox="0 0 58.318 58.318" style="enable-background:new 0 0 58.318 58.318;" xml:space="preserve">
<path style="fill:#231F20;" d="M55.579,29.322C55.394,15.929,45.196,4.917,32.15,3.435V3c0-1.657-1.343-3-3-3s-3,1.343-3,3v0.435
	C12.983,4.93,2.717,16.132,2.717,29.691c0,1.657,1.343,3,3,3H26.15V50.26c0,4.443,3.615,8.059,8.059,8.059
	c4.444,0,8.06-3.615,8.06-8.059c0-1.657-1.343-3-3-3s-3,1.343-3,3c0,1.135-0.924,2.059-2.06,2.059c-1.135,0-2.059-0.924-2.059-2.059
	V32.691h20.432c0.008,0.001,0.015,0,0.02,0c1.657,0,3-1.343,3-3C55.601,29.566,55.594,29.443,55.579,29.322z M18.25,12.434
	c-1.745,3.874-2.88,8.762-3.184,14.257H8.937C9.824,20.695,13.334,15.551,18.25,12.434z M21.084,26.691
	c0.475-7.604,2.696-13.087,5.066-15.699v15.699H21.084z M32.15,10.992c2.37,2.612,4.59,8.096,5.065,15.699H32.15V10.992z
	 M43.233,26.691c-0.304-5.495-1.44-10.384-3.184-14.258c4.917,3.116,8.427,8.261,9.313,14.258H43.233z"/>
<g>
</g>
<g>
</g>
<g>
</g>
<g>
</g>
<g>
</g>
<g>
</g>
<g>
</g>
<g>
</g>
<g>
</g>
<g>
</g>
<g>
</g>
<g>
</g>
<g>
</g>
<g>
</g>
<g>
</g>
</svg>
